<svg width="1190" height="297" xmlns="http://www.w3.org/2000/svg" xmlns:xlink="http://www.w3.org/1999/xlink" overflow="hidden"><defs><clipPath id="clip0"><rect x="45" y="205" width="1190" height="297"/></clipPath></defs><g clip-path="url(#clip0)" transform="translate(-45 -205)"><path d="M46.5001 228.834C46.5001 216.499 56.4993 206.5 68.8339 206.5L241.166 206.5C253.501 206.5 263.5 216.499 263.5 228.834L263.5 318.166C263.5 330.501 253.501 340.5 241.166 340.5L68.8339 340.5C56.4993 340.5 46.5001 330.501 46.5001 318.166Z" stroke="#9DC3E6" stroke-width="1.33333" stroke-miterlimit="8" fill="#9DC3E6" fill-rule="evenodd"/><text font-family="DengXian,DengXian_MSFontService,sans-serif" font-weight="700" font-size="24" transform="translate(67.7534 247)">Controlled roles <tspan font-weight="400" font-size="19" x="21.5867" y="24">base / updates / </tspan><tspan font-weight="400" font-size="19" x="-3.08" y="47">queries frozen IDs and </tspan><tspan font-weight="400" font-size="19" x="64.5" y="69">seeds</tspan></text><path d="M289.5 228.834C289.5 216.499 299.499 206.5 311.834 206.5L484.166 206.5C496.501 206.5 506.5 216.499 506.5 228.834L506.5 318.166C506.5 330.501 496.501 340.5 484.166 340.5L311.834 340.5C299.499 340.5 289.5 330.501 289.5 318.166Z" stroke="#E2F0D9" stroke-width="1.33333" stroke-miterlimit="8" fill="#C5E0B4" fill-rule="evenodd"/><text font-family="DengXian,DengXian_MSFontService,sans-serif" font-weight="700" font-size="24" transform="translate(323.712 247)">Arrival orders <tspan font-weight="400" font-size="19" x="-17.6667" y="24">shifted stream shuffled </tspan><tspan font-weight="400" font-size="19" x="2.33334" y="47">control same final </tspan><tspan font-weight="400" font-size="19" x="46.6667" y="69">corpus</tspan></text><path d="M1017.5 228.834C1017.5 216.499 1027.5 206.5 1039.83 206.5L1212.17 206.5C1224.5 206.5 1234.5 216.499 1234.5 228.834L1234.5 318.166C1234.5 330.501 1224.5 340.5 1212.17 340.5L1039.83 340.5C1027.5 340.5 1017.5 330.501 1017.5 318.166Z" stroke="#FFCCFF" stroke-width="1.33333" stroke-miterlimit="8" fill="#FFCCFF" fill-rule="evenodd"/><text font-family="DengXian,DengXian_MSFontService,sans-serif" font-weight="700" font-size="24" transform="translate(1041.16 247)">Audited output <tspan font-weight="400" font-size="19" x="-4.33337" y="24">Recall@10, Q95 insert </tspan><tspan font-weight="400" font-size="19" x="9" y="47">+ maintenance C / </tspan><tspan font-weight="400" font-size="19" x="19.6666" y="69">C+V and Pareto</tspan></text><path d="M532.5 228.834C532.5 216.499 542.499 206.5 554.834 206.5L726.166 206.5C738.501 206.5 748.5 216.499 748.5 228.834L748.5 318.166C748.5 330.501 738.501 340.5 726.166 340.5L554.834 340.5C542.499 340.5 532.5 330.501 532.5 318.166Z" stroke="#FFF2CC" stroke-width="1.33333" stroke-miterlimit="8" fill="#FFF2CC" fill-rule="evenodd"/><text font-family="DengXian,DengXian_MSFontService,sans-serif" font-weight="700" font-size="24" transform="translate(562 247)">Replay rounds <tspan font-weight="400" font-size="19" x="0.753357" y="24">initial build insert + </tspan><tspan font-weight="400" font-size="19" x="8.75336" y="47">checkpoint query </tspan><tspan font-weight="400" font-size="19" x="14.42" y="69">optional rebuild</tspan></text><path d="M774.5 228.834C774.5 216.499 784.499 206.5 796.834 206.5L969.166 206.5C981.501 206.5 991.5 216.499 991.5 228.834L991.5 318.166C991.5 330.501 981.501 340.5 969.166 340.5L796.834 340.5C784.499 340.5 774.5 330.501 774.5 318.166Z" stroke="#FBE5D6" stroke-width="1.33333" stroke-miterlimit="8" fill="#FBE5D6" fill-rule="evenodd"/><text font-family="DengXian,DengXian_MSFontService,sans-serif" font-weight="700" font-size="24" transform="translate(807.868 247)">Index policies <tspan font-weight="400" font-size="19" x="-13.08" y="24">IVF</tspan><tspan font-weight="400" font-size="19" x="11.92" y="24">-</tspan><tspan font-weight="400" font-size="19" x="21.2534" y="24">fixed / IVF</tspan><tspan font-weight="400" font-size="19" x="101.753" y="24">-</tspan><tspan font-weight="400" font-size="19" x="111.087" y="24">rebuilt </tspan><tspan font-weight="400" font-size="19" x="5.66669" y="47">HNSW / dynamic </tspan><tspan font-weight="400" font-size="19" x="-12.8333" y="69">graph exact reference</tspan></text><path d="M506.5 278.75 522 278.75 522 273.5 532.5 284 522 294.5 522 289.25 506.5 289.25Z" stroke="#000000" stroke-width="1.33333" stroke-miterlimit="8" fill="#44546A" fill-rule="evenodd"/><path d="M748.5 278.75 764 278.75 764 273.5 774.5 284 764 294.5 764 289.25 748.5 289.25Z" stroke="#000000" stroke-width="1.33333" stroke-miterlimit="8" fill="#44546A" fill-rule="evenodd"/><path d="M990.5 278.75 1006 278.75 1006 273.5 1016.5 284 1006 294.5 1006 289.25 990.5 289.25Z" stroke="#000000" stroke-width="1.33333" stroke-miterlimit="8" fill="#44546A" fill-rule="evenodd"/><path d="M262.5 278.75 278 278.75 278 273.5 288.5 284 278 294.5 278 289.25 262.5 289.25Z" stroke="#000000" stroke-width="1.33333" stroke-miterlimit="8" fill="#44546A" fill-rule="evenodd"/><text font-family="DengXian,DengXian_MSFontService,sans-serif" font-weight="400" font-size="24" transform="translate(329.523 377)">paired evidence: exact neighbors + event log + hashes</text><path d="M230.5 438.501C230.5 431.873 235.873 426.5 242.501 426.5L1038.5 426.5C1045.13 426.5 1050.5 431.873 1050.5 438.501L1050.5 486.499C1050.5 493.127 1045.13 498.5 1038.5 498.5L242.501 498.5C235.873 498.5 230.5 493.127 230.5 486.499Z" stroke="#D0CECE" stroke-width="1.33333" stroke-miterlimit="8" fill="#D0CECE" fill-rule="evenodd"/><text font-family="DengXian,DengXian_MSFontService,sans-serif" font-weight="700" font-size="24" transform="translate(523.913 456)">Recall<tspan font-size="24" x="64.3333" y="0">-</tspan>floor selection<tspan font-weight="400" font-size="19" x="-118.747" y="29">held</tspan><tspan font-weight="400" font-size="19" x="-83.9133" y="29">-</tspan><tspan font-weight="400" font-size="19" x="-74.58" y="29">out validation </tspan><tspan font-weight="400" font-size="19" x="40.2533" y="29">-</tspan><tspan font-weight="400" font-size="19" x="49.5867" y="29">&gt; test quality / service</tspan><tspan font-weight="400" font-size="19" x="227.087" y="29">-</tspan><tspan font-weight="400" font-size="19" x="236.42" y="29">work boundary</tspan></text><path d="M646 395.5 646 409.5 651.5 409.5 640.5 420.5 629.5 409.5 635 409.5 635 395.5Z" stroke="#000000" stroke-width="1.33333" stroke-miterlimit="8" fill="#44546A" fill-rule="evenodd"/></g></svg>